# xmcd
#
# Track frame offsets:
#	150
#	14142
#	26789
#	36818
#	50862
#	66803
#
# Disc length: 1151 seconds
# Revision: 0
# Processed by: cddbd v1.5.2PL0 Copyright (c) Steve Scherf et al.
# Submitted via: dBpowerAMP V12.0
#
DISCID=55047d06
DTITLE=Jason Carruthers - The Land of Extremes
DYEAR=2016
DGENRE=Country
TTITLE0=Truck Driving Man
TTITLE1=Australia The Land of Extremes
TTITLE2=Slim Said I Couldn't Yodel
TTITLE3=The Dairy Farm
TTITLE4=Lambs Valley
TTITLE5=Flood of 55
EXTD=
EXTT0=
EXTT1=
EXTT2=
EXTT3=
EXTT4=
EXTT5=
PLAYORDER=
